<?xml version="1.0" standalone="no"?>
<!DOCTYPE svg PUBLIC "-//W3C//DTD SVG 20010904//EN"
 "http://www.w3.org/TR/2001/REC-SVG-20010904/DTD/svg10.dtd">
<svg version="1.0" xmlns="http://www.w3.org/2000/svg"
 width="1376.000000pt" height="1376.000000pt" viewBox="0 0 1376.000000 1376.000000"
 preserveAspectRatio="xMidYMid meet">
<metadata>
Created by potrace 1.11, written by Peter Selinger 2001-2013
</metadata>
<g transform="translate(0.000000,1376.000000) scale(0.100000,-0.100000)"
fill="#000000" stroke="none">
<path d="M9040 10508 c-85 -50 -225 -132 -310 -181 -85 -50 -202 -118 -260
-152 -58 -34 -181 -106 -275 -160 -93 -54 -190 -110 -215 -125 -25 -15 -148
-87 -275 -160 -126 -73 -266 -154 -310 -180 -44 -26 -210 -123 -370 -215 -410
-237 -458 -266 -448 -275 4 -4 139 -83 298 -175 160 -92 310 -180 335 -195
151 -92 740 -430 750 -430 10 0 513 289 775 445 39 23 158 93 266 155 l197
115 6 65 c9 94 7 1560 -1 1559 -5 0 -78 -41 -163 -91z"/>
<path d="M4925 8114 c-33 -20 -265 -156 -515 -302 -596 -347 -1154 -673 -1918
-1119 l-623 -363 -277 161 c-152 89 -351 204 -442 257 -91 52 -201 116 -245
142 -44 26 -156 91 -250 145 -93 54 -233 135 -310 180 -269 156 -326 188 -330
183 -2 -2 -8 -364 -11 -805 l-7 -800 24 -15 c13 -9 256 -149 539 -313 626
-362 968 -561 1158 -672 l143 -83 127 74 c70 41 208 121 307 179 184 106 593
344 1187 691 183 106 457 265 608 353 151 88 415 242 587 341 171 100 314 182
316 182 6 0 62 -32 277 -157 85 -49 340 -197 565 -328 226 -131 419 -244 430
-251 18 -12 30 -8 110 40 50 29 182 106 295 171 113 65 300 173 415 240 116
67 287 166 380 220 94 54 183 106 199 115 l28 17 -88 51 c-49 27 -145 82 -214
122 -69 40 -198 115 -287 166 -90 52 -238 138 -330 191 -93 53 -251 145 -353
203 -102 59 -243 141 -315 182 -71 41 -292 168 -490 283 -198 114 -417 240
-486 281 -70 41 -131 74 -135 74 -5 0 -36 -16 -69 -36z"/>
<path d="M13685 7936 c-38 -24 -266 -157 -505 -296 -239 -138 -491 -285 -560
-325 -69 -40 -235 -137 -370 -215 -135 -78 -312 -181 -395 -230 -82 -48 -208
-121 -280 -163 -71 -41 -222 -129 -335 -194 -113 -66 -333 -194 -490 -285
-374 -217 -1055 -613 -1200 -697 -63 -37 -173 -101 -245 -143 -641 -372 -1904
-1106 -2095 -1218 -63 -37 -245 -142 -405 -235 -159 -92 -312 -181 -338 -197
l-49 -29 -416 240 c-230 131 -552 317 -717 412 -596 343 -710 408 -711 406 -1
-1 -4 -365 -7 -809 l-5 -807 121 -69 c67 -39 176 -101 242 -140 66 -38 383
-221 705 -407 322 -186 630 -364 685 -396 l100 -58 55 32 c54 30 227 130 470
272 384 223 942 547 1050 610 69 40 357 207 640 372 539 314 930 541 1453 845
171 99 490 284 707 411 217 126 478 278 580 337 102 59 336 195 520 302 184
107 450 262 590 343 549 319 1050 611 1163 677 l117 69 0 814 c0 448 -1 815
-2 814 -2 0 -34 -20 -73 -43z"/>
</g>
</svg>
